<svg xmlns="http://www.w3.org/2000/svg" width="85.5" height="95" viewBox="0 0 85.5 95">
  <defs>
    <style>
      .cls-1 {
        fill: #3c90c9;
      }
    </style>
  </defs>
  <g id="bx-calculator" transform="translate(-3 -2)">
    <path id="Path_13" data-name="Path 13" class="cls-1" d="M79,2H12.5A9.51,9.51,0,0,0,3,11.5v76A9.51,9.51,0,0,0,12.5,97H79a9.51,9.51,0,0,0,9.5-9.5v-76A9.51,9.51,0,0,0,79,2ZM12.5,87.5v-76H79l0,76Z"/>
    <path id="Path_14" data-name="Path 14" class="cls-1" d="M7,34.5h9.5V44H7Zm0,19h9.5V63H7Zm19-19h9.5V44H26ZM7,6H54.5V25H7ZM26,53.5h9.5V63H26Zm19-19h9.5V63H45Z" transform="translate(15 15)"/>
  </g>
</svg>
