<svg xmlns="http://www.w3.org/2000/svg" width="86" height="86" viewBox="0 0 86 86">
  <defs>
    <style>
      .cls-1 {
        fill: none;
      }

      .cls-2 {
        fill: #3c90c9;
      }
    </style>
  </defs>
  <g id="bx-dollar-circle" transform="translate(-2 -2)">
    <path id="Path_15" data-name="Path 15" class="cls-1" d="M38.4,4A34.4,34.4,0,1,0,72.8,38.4,34.44,34.44,0,0,0,38.4,4Zm4.3,55.535V64.2H34.1V59.556C24.042,57.978,21.2,50.947,21.2,47h8.6c.047.615.684,4.3,8.6,4.3,5.934,0,8.6-2.515,8.6-4.3,0-1.393,0-4.3-8.6-4.3-14.964,0-17.2-8.084-17.2-12.9,0-5.538,4.425-11.111,12.9-12.535V12.652h8.6V17.42A12.907,12.907,0,0,1,53.02,29.8h-4.3l-4.3.077C44.36,28.243,43.5,25.5,38.4,25.5c-5.586,0-8.6,2.219-8.6,4.3,0,1.608,0,4.3,8.6,4.3,14.964,0,17.2,8.084,17.2,12.9C55.6,52.538,51.175,58.111,42.7,59.535Z" transform="translate(6.6 6.6)"/>
    <path id="Path_16" data-name="Path 16" class="cls-2" d="M45,2A43,43,0,1,0,88,45,43.049,43.049,0,0,0,45,2Zm0,77.4A34.4,34.4,0,1,1,79.4,45,34.44,34.44,0,0,1,45,79.4Z"/>
    <path id="Path_17" data-name="Path 17" class="cls-2" d="M25.2,27.46c-8.6,0-8.6-2.692-8.6-4.3,0-2.081,3.014-4.3,8.6-4.3,5.1,0,5.96,2.743,6.02,4.377l4.3-.077h4.3A12.907,12.907,0,0,0,29.5,10.781V6.012H20.9v4.614C12.425,12.049,8,17.622,8,23.16c0,4.816,2.236,12.9,17.2,12.9,8.6,0,8.6,2.907,8.6,4.3,0,1.785-2.666,4.3-8.6,4.3-7.916,0-8.553-3.685-8.6-4.3H8c0,3.947,2.842,10.978,12.9,12.556V57.56h8.6V52.895c8.475-1.423,12.9-7,12.9-12.535C42.4,35.544,40.164,27.46,25.2,27.46Z" transform="translate(19.8 13.24)"/>
  </g>
</svg>
