<svg xmlns="http://www.w3.org/2000/svg" width="89.613" height="78.411" viewBox="0 0 89.613 78.411">
  <defs>
    <style>
      .cls-1 {
        fill: #3c90c9;
      }
    </style>
  </defs>
  <path id="bx-list-ol" class="cls-1" d="M11.18,44.564a21.223,21.223,0,0,0-4.9,4.766,9.891,9.891,0,0,0-1.563,4.3h15V49.442H11.914c.454-.454.851-.846,1.187-1.126s1.019-.8,2.022-1.512a13.184,13.184,0,0,0,3.506-3.383,5.978,5.978,0,0,0,.969-3.237,5.124,5.124,0,0,0-3.153-4.777,10.6,10.6,0,0,0-4.105-.622,9.909,9.909,0,0,0-3.954.639,4.979,4.979,0,0,0-2.218,1.893A8.228,8.228,0,0,0,5.081,40.7l5.007.426a3.938,3.938,0,0,1,.823-2.207,2.1,2.1,0,0,1,1.563-.6,2.038,2.038,0,0,1,1.523.6,1.925,1.925,0,0,1,.6,1.445,3.083,3.083,0,0,1-.6,1.663A15.165,15.165,0,0,1,11.18,44.564Zm.308,35.767a2.231,2.231,0,0,1-1.579-.588A3.874,3.874,0,0,1,9,77.626l-5,.661a7.905,7.905,0,0,0,1.406,2.834,5.931,5.931,0,0,0,2.336,1.714,10.484,10.484,0,0,0,3.876.577,9.019,9.019,0,0,0,4.061-.784,5.605,5.605,0,0,0,2.375-2.257,6.113,6.113,0,0,0,.818-3.047,4.61,4.61,0,0,0-.493-2.2,3.964,3.964,0,0,0-1.395-1.462,5.687,5.687,0,0,0-1.6-.616,5.28,5.28,0,0,0,1.932-1.675,3.768,3.768,0,0,0,.633-2.145,4.184,4.184,0,0,0-1.574-3.338q-1.571-1.336-5.091-1.333A7.881,7.881,0,0,0,6.537,65.78a5.947,5.947,0,0,0-2.263,3.506L9,70.132a3.25,3.25,0,0,1,.745-1.893,1.982,1.982,0,0,1,1.439-.549,1.85,1.85,0,0,1,1.35.5,1.811,1.811,0,0,1,.487,1.333,2.029,2.029,0,0,1-.655,1.512,2.246,2.246,0,0,1-1.641.627,5.077,5.077,0,0,1-.65-.062l-.252,3.635a6.331,6.331,0,0,1,1.619-.314,2.231,2.231,0,0,1,1.753.706,2.769,2.769,0,0,1,.644,1.971,2.878,2.878,0,0,1-.666,1.983A2.209,2.209,0,0,1,11.488,80.331ZM16.8,23.858V5H12.659a8.235,8.235,0,0,1-2.207,2.929A12.2,12.2,0,0,1,6.487,9.974V14.2a18.3,18.3,0,0,0,2.879-1.143,14.535,14.535,0,0,0,2.369-1.546V23.864H16.8ZM32,10.6H93.613V21.8H32Zm0,28H93.613v11.2H32Zm0,28H93.613v11.2H32Z" transform="translate(-4 -5)"/>
</svg>
