<svg xmlns="http://www.w3.org/2000/svg" width="99.905" height="108" viewBox="0 0 99.905 108">
  <path id="bx-git-merge" d="M2.5,91.1A18.9,18.9,0,1,0,26.8,73.08V54.245a26.8,26.8,0,0,0,4.39,4.018c6.372,4.558,14.132,5.929,21.157,5.929A65.082,65.082,0,0,0,65.88,62.674a18.872,18.872,0,1,0-.756-10.892c-7,1.733-19.786,3.326-27.643-2.3-3.6-2.576-5.886-6.691-7.052-12.074A18.9,18.9,0,1,0,16,38.92V73.08A18.873,18.873,0,0,0,2.5,91.1Zm81-43.2A8.1,8.1,0,1,1,75.4,56,8.11,8.11,0,0,1,83.5,47.9Zm-54,43.2A8.1,8.1,0,1,1,21.4,83,8.11,8.11,0,0,1,29.5,91.1ZM13.3,20.9A8.1,8.1,0,1,1,21.4,29,8.11,8.11,0,0,1,13.3,20.9Z" transform="translate(-2.5 -2)" fill="#67bcee"/>
</svg>
